HIERARCHY
ROOT Hips
{
	OFFSET 0.000000 0.000000 0.000000
	CHANNELS 6 Xposition Yposition Zposition Xrotation Yrotation Zrotation
	JOINT LeftUpLeg_virtual
	{
		OFFSET 0.000000 0.000000 0.000000
		CHANNELS 3 Xrotation Yrotation Zrotation
		JOINT LeftUpLeg
		{
			OFFSET 15.427100 -6.655098 0.678600
			CHANNELS 3 Xrotation Yrotation Zrotation
			JOINT LeftLeg
			{
				OFFSET 4.081073 -39.591068 13.024000
				CHANNELS 3 Xrotation Yrotation Zrotation
				JOINT LeftFoot
				{
					OFFSET -4.081074 -37.707932 -15.979700
					CHANNELS 3 Xrotation Yrotation Zrotation
					JOINT LeftToeBase
					{
						OFFSET 5.346399 -15.068900 20.645000
						CHANNELS 3 Xrotation Yrotation Zrotation
						JOINT LeftToe_End
						{
							OFFSET 2.754700 0.931300 11.300900
							CHANNELS 3 Xrotation Yrotation Zrotation
							End Site
							{
								OFFSET 0 0 0
							}
						}
					}
				}
			}
		}
	}
	JOINT RightUpLeg_virtual
	{
		OFFSET 0.000000 0.000000 0.000000
		CHANNELS 3 Xrotation Yrotation Zrotation
		JOINT RightUpLeg
		{
			OFFSET -15.569500 -6.655098 0.678600
			CHANNELS 3 Xrotation Yrotation Zrotation
			JOINT RightLeg
			{
				OFFSET -4.081825 -39.591045 13.023800
				CHANNELS 3 Xrotation Yrotation Zrotation
				JOINT RightFoot
				{
					OFFSET 4.081824 -37.707954 -15.979600
					CHANNELS 3 Xrotation Yrotation Zrotation
					JOINT RightToeBase
					{
						OFFSET -5.346400 -15.068900 20.645000
						CHANNELS 3 Xrotation Yrotation Zrotation
						JOINT RightToe_End
						{
							OFFSET -2.754700 0.931300 11.300900
							CHANNELS 3 Xrotation Yrotation Zrotation
							End Site
							{
								OFFSET 0 0 0
							}
						}
					}
				}
			}
		}
	}
	JOINT Spine_virtual
	{
		OFFSET 0.000000 0.000000 0.000000
		CHANNELS 3 Xrotation Yrotation Zrotation
		JOINT Spine
		{
			OFFSET -0.279200 12.230698 -2.892100
			CHANNELS 3 Xrotation Yrotation Zrotation
			JOINT Spine1
			{
				OFFSET -0.232667 10.192268 -1.242267
				CHANNELS 3 Xrotation Yrotation Zrotation
				JOINT Spine1_split
				{
					OFFSET -0.232667 10.192268 -1.242267
					CHANNELS 3 Xrotation Yrotation Zrotation
					JOINT Spine2
					{
						OFFSET -0.232667 10.192268 -1.242267
						CHANNELS 3 Xrotation Yrotation Zrotation
						JOINT Neck_virtual
						{
							OFFSET 0.000000 0.000000 0.000000
							CHANNELS 3 Xrotation Yrotation Zrotation
							JOINT Neck
							{
								OFFSET -0.418800 17.814194 8.416900
								CHANNELS 3 Xrotation Yrotation Zrotation
								JOINT Head
								{
									OFFSET 0.000000 7.031097 3.806800
									CHANNELS 3 Xrotation Yrotation Zrotation
									JOINT HeadTop_End
									{
										OFFSET 0.000000 24.646606 12.978600
										CHANNELS 3 Xrotation Yrotation Zrotation
										End Site
										{
											OFFSET 0 0 0
										}
									}
								}
							}
						}
						JOINT LeftShoulder_virtual
						{
							OFFSET 0.000000 0.000000 0.000000
							CHANNELS 3 Xrotation Yrotation Zrotation
							JOINT LeftShoulder
							{
								OFFSET 8.476499 7.247704 -3.868750
								CHANNELS 3 Xrotation Yrotation Zrotation
								JOINT LeftShoulder_split
								{
									OFFSET 8.476499 7.247704 -3.868750
									CHANNELS 3 Xrotation Yrotation Zrotation
									JOINT LeftArm
									{
										OFFSET 9.308998 -2.777710 0.208600
										CHANNELS 3 Xrotation Yrotation Zrotation
										JOINT LeftForeArm
										{
											OFFSET 29.972298 0.000000 0.000000
											CHANNELS 3 Xrotation Yrotation Zrotation
											JOINT LeftHand
											{
												OFFSET 26.026505 0.000000 0.000000
												CHANNELS 3 Xrotation Yrotation Zrotation
												End Site
												{
													OFFSET 0 0 0
												}
											}
										}
									}
								}
							}
						}
						JOINT RightShoulder_virtual
						{
							OFFSET 0.000000 0.000000 0.000000
							CHANNELS 3 Xrotation Yrotation Zrotation
							JOINT RightShoulder
							{
								OFFSET -7.570500 7.247704 -3.868750
								CHANNELS 3 Xrotation Yrotation Zrotation
								JOINT RightShoulder_split
								{
									OFFSET -7.570500 7.247704 -3.868750
									CHANNELS 3 Xrotation Yrotation Zrotation
									JOINT RightArm
									{
										OFFSET -9.308998 -2.777710 0.208500
										CHANNELS 3 Xrotation Yrotation Zrotation
										JOINT RightForeArm
										{
											OFFSET -29.972300 0.000000 0.000000
											CHANNELS 3 Xrotation Yrotation Zrotation
											JOINT RightHand
											{
												OFFSET -26.026505 0.000000 0.000000
												CHANNELS 3 Xrotation Yrotation Zrotation
												End Site
												{
													OFFSET 0 0 0
												}
											}
										}
									}
								}
							}
						}
					}
				}
			}
		}
	}
}
MOTION
Frames: 8
Frame Time: 0.03333333
0.565976 49.295082 16.302280 0.000000 0.000000 0.000000 0.145648 0.084436 0.850177 -86.310655 -11.432654 18.500291 79.644725 -0.697249 -3.143173 9.215307 -6.280528 -9.756311 -0.103129 -0.000001 -0.000001 0.000000 0.000000 0.000000 0.145648 0.084436 0.850177 -88.059375 12.724836 -14.134288 80.266238 0.663967 1.243746 10.521575 -0.517715 10.741990 -0.195512 0.000003 -0.000003 0.000000 0.000000 0.000000 0.145648 0.084436 0.850177 10.430364 0.116043 -1.478976 -0.199273 0.216427 -0.355483 0.000000 0.000000 0.000000 0.000000 0.000000 0.000000 -0.199596 0.248527 -0.300892 -1.001768 -1.276608 0.469464 -8.883415 -4.319392 -5.320495 0.000000 0.000000 0.000000 -0.199596 0.248527 -0.300892 0.823519 -15.262025 -7.868746 0.000000 0.000000 0.000000 4.746757 -21.216405 -54.862193 -0.000036 -62.197560 -0.000044 0.000000 0.000000 0.000000 -0.199596 0.248527 -0.300892 3.171098 -4.378723 8.782889 0.000000 0.000000 0.000000 -3.950242 37.253399 63.733649 -0.000004 55.137938 0.000006 0.000000 0.000000 0.000000 
0.563198 49.292137 16.393452 0.000000 0.000000 0.000000 0.270722 0.105220 0.855293 -86.673106 -11.439460 18.352157 79.751782 -0.569282 -3.035609 9.568641 -6.229023 -9.559520 -0.154014 0.000011 -0.041564 0.000000 0.000000 0.000000 0.270722 0.105220 0.855293 -88.385052 12.801982 -13.938656 80.587196 0.646844 1.105998 10.684042 -0.700742 10.617805 -0.243897 -0.000007 0.009948 0.000000 0.000000 0.000000 0.270722 0.105220 0.855293 10.538066 0.109585 -1.483951 0.117321 0.217353 -0.407600 0.000000 0.000000 0.000000 0.000000 0.000000 0.000000 -0.022415 0.256674 -0.330248 -0.608623 -1.274648 0.376579 -10.758934 -4.494758 -5.054918 0.000000 0.000000 0.000000 -0.022415 0.256674 -0.330248 1.483755 -14.226184 -5.573874 0.000000 0.000000 0.000000 1.069126 -20.426968 -59.574180 0.000006 -61.355077 0.000006 0.000000 0.000000 0.000000 -0.022415 0.256674 -0.330248 3.198767 -5.102191 7.675742 0.000000 0.000000 0.000000 -5.994464 37.040164 66.362371 -0.000025 54.665733 0.000037 0.000000 0.000000 0.000000 
0.555371 49.316216 16.506445 0.000000 0.000000 0.000000 0.322101 0.127399 0.868411 -87.147927 -11.504368 18.169288 79.961407 -0.461692 -2.860688 9.982785 -5.961905 -9.662588 -0.194341 0.000012 0.000003 0.000000 0.000000 0.000000 0.322101 0.127399 0.868411 -88.824670 12.797191 -13.548336 80.939046 0.655935 0.787653 11.242868 -1.033787 10.549993 -0.267829 -0.001044 0.369502 0.000000 0.000000 0.000000 0.322101 0.127399 0.868411 10.755120 0.095153 -1.494629 0.561807 0.226205 -0.458109 0.000000 0.000000 0.000000 0.000000 0.000000 0.000000 0.311176 0.271967 -0.384474 -0.128491 -1.267130 0.274483 -12.595950 -4.648121 -4.744551 0.000000 0.000000 0.000000 0.311176 0.271967 -0.384474 2.105334 -13.032949 -2.969768 0.000000 0.000000 0.000000 -2.448519 -19.928783 -64.159409 0.000013 -60.572850 0.000018 0.000000 0.000000 0.000000 0.311176 0.271967 -0.384474 3.198645 -5.900650 6.470102 0.000000 0.000000 0.000000 -8.231920 36.790541 69.124226 -0.000040 54.322024 0.000049 0.000000 0.000000 0.000000 
0.552921 49.350838 16.619123 0.000000 0.000000 0.000000 0.340061 0.146236 0.880718 -87.668306 -11.541331 17.895072 80.204459 -0.330155 -2.578481 10.395071 -5.571141 -9.877487 -0.294179 0.000001 -0.000001 0.000000 0.000000 0.000000 0.340061 0.146236 0.880718 -89.295598 12.660080 -12.968204 81.234568 0.669781 0.272572 11.922679 -1.564017 10.571892 -0.102549 -0.005891 0.876352 0.000000 0.000000 0.000000 0.340061 0.146236 0.880718 11.068806 0.086779 -1.504227 1.150176 0.241930 -0.514970 0.000000 0.000000 0.000000 0.000000 0.000000 0.000000 0.790868 0.295513 -0.461894 0.425492 -1.256187 0.167569 -14.339094 -4.783132 -4.404731 0.000000 0.000000 0.000000 0.790868 0.295513 -0.461894 2.644605 -11.707455 -0.109113 0.000000 0.000000 0.000000 -5.808106 -19.746080 -68.588992 -0.000013 -59.897282 -0.000010 0.000000 0.000000 0.000000 0.790868 0.295513 -0.461894 3.163799 -6.760643 5.176095 0.000000 0.000000 0.000000 -10.632081 36.518542 71.973139 -0.000042 54.067074 0.000046 0.000000 0.000000 0.000000 
0.569160 49.391838 16.715025 0.000000 0.000000 0.000000 0.383461 0.154763 0.881642 -88.181349 -11.523509 17.580441 80.444028 -0.218137 -2.241845 10.648801 -5.134252 -10.145305 -0.469542 -0.000003 0.000001 0.000000 0.000000 0.000000 0.383461 0.154763 0.881642 -89.668902 12.459918 -12.264476 81.370933 0.586675 -0.371637 12.441570 -2.214790 10.764020 0.043450 -0.011234 1.209016 0.000000 0.000000 0.000000 0.383461 0.154763 0.881642 11.434869 0.097098 -1.505022 1.819991 0.261522 -0.576246 0.000000 0.000000 0.000000 0.000000 0.000000 0.000000 1.350172 0.323237 -0.552269 1.022757 -1.245122 0.066546 -15.913219 -4.911711 -4.075077 0.000000 0.000000 0.000000 1.350172 0.323237 -0.552269 3.059796 -10.315391 2.847923 0.000000 0.000000 0.000000 -8.967105 -19.707585 -72.794162 0.000003 -59.348361 -0.000012 0.000000 0.000000 0.000000 1.350172 0.323237 -0.552269 3.090339 -7.641476 3.832548 0.000000 0.000000 0.000000 -13.143294 36.248272 74.849953 -0.000004 53.791046 -0.000002 0.000000 0.000000 0.000000 
0.619691 49.436623 16.770956 0.000000 0.000000 0.000000 0.491059 0.143361 0.861734 -88.613112 -11.406674 17.313519 80.638074 -0.181018 -1.932490 10.588950 -4.741652 -10.358338 -0.769270 0.000007 -0.000002 0.000000 0.000000 0.000000 0.491059 0.143361 0.861734 -89.791354 12.361180 -11.519549 81.230026 0.251493 -1.025381 12.536373 -2.787686 11.180569 -0.341273 -0.005355 0.834686 0.000000 0.000000 0.000000 0.491059 0.143361 0.861734 11.842304 0.142778 -1.489890 2.547182 0.286203 -0.639089 0.000000 0.000000 0.000000 0.000000 0.000000 0.000000 1.972555 0.355291 -0.653411 1.621071 -1.236236 -0.013578 -17.236510 -5.052842 -3.812319 0.000000 0.000000 0.000000 1.972555 0.355291 -0.653411 3.334359 -8.932677 5.680481 0.000000 0.000000 0.000000 -11.868976 -19.507961 -76.691270 0.000047 -58.875862 0.000062 0.000000 0.000000 0.000000 1.972555 0.355291 -0.653411 2.980575 -8.486971 2.497493 0.000000 0.000000 0.000000 -15.704379 35.962776 77.715293 -0.000001 53.401455 -0.000001 0.000000 0.000000 0.000000 
0.708738 49.437126 16.771017 0.000000 0.000000 0.000000 0.680864 0.115600 0.824823 -88.932997 -11.138150 17.136738 80.789308 -0.421903 -1.691454 10.007237 -4.407745 -10.430209 -1.219084 0.000005 -0.000001 0.000000 0.000000 0.000000 0.680864 0.115600 0.824823 -89.789093 12.446793 -10.748501 80.822373 -0.219541 -1.620051 12.294990 -3.177659 11.728602 -1.693809 -0.000013 -0.000004 0.000000 0.000000 0.000000 0.680864 0.115600 0.824823 12.254773 0.220364 -1.459525 3.280980 0.313707 -0.702277 0.000000 0.000000 0.000000 0.000000 0.000000 0.000000 2.602934 0.388012 -0.756591 2.163693 -1.230596 -0.061493 -18.231655 -5.225900 -3.664095 0.000000 0.000000 0.000000 2.602934 0.388012 -0.756591 3.481072 -7.641892 8.182007 0.000000 0.000000 0.000000 -14.371749 -18.912802 -80.164858 -0.000012 -58.517434 -0.000010 0.000000 0.000000 0.000000 2.602934 0.388012 -0.756591 2.842320 -9.254248 1.219922 0.000000 0.000000 0.000000 -18.145031 35.580057 80.488144 -0.000017 53.022301 -0.000010 0.000000 0.000000 0.000000 
0.814053 49.351250 16.708485 0.000000 0.000000 0.000000 1.052166 0.092979 0.788518 -89.260997 -10.714169 17.016499 80.855178 -0.953159 -1.512193 9.051295 -4.095779 -10.345641 -1.764971 -0.000003 -0.000002 0.000000 0.000000 0.000000 1.052166 0.092979 0.788518 -90.078263 12.564847 -10.009063 80.535348 -0.608166 -2.174487 11.531432 -3.803610 12.317831 -3.677680 -0.000003 0.000002 0.000000 0.000000 0.000000 1.052166 0.092979 0.788518 12.636442 0.313678 -1.421342 3.972943 0.336889 -0.763606 0.000000 0.000000 0.000000 0.000000 0.000000 0.000000 3.188177 0.412848 -0.851424 2.561639 -1.229456 -0.077120 -18.843986 -5.441910 -3.645337 0.000000 0.000000 0.000000 3.188177 0.412848 -0.851424 3.538005 -6.589554 10.174452 0.000000 0.000000 0.000000 -16.129413 -17.929209 -82.956288 0.000031 -58.642734 0.000034 0.000000 0.000000 0.000000 3.188177 0.412848 -0.851424 2.686035 -9.915123 0.037833 0.000000 0.000000 0.000000 -20.014594 35.025961 82.852640 0.000001 53.126205 -0.000017 0.000000 0.000000 0.000000 
